<svg width="128" height="128" viewBox="0 0 128 128" fill="none" xmlns="http://www.w3.org/2000/svg">
<rect width="128" height="128" fill="#F5821F"/>
<mask id="mask0_544_506" style="mask-type:alpha" maskUnits="userSpaceOnUse" x="0" y="0" width="128" height="128">
<rect width="128" height="128" fill="#F5821F"/>
</mask>
<g mask="url(#mask0_544_506)">
<path d="M134.293 78.3735L129.626 93.4887C127.366 100.566 124.227 105.243 120.209 107.56C116.191 109.856 109.223 111.026 99.3453 111.026H81.7877C74.6935 111.026 69.5246 110.17 66.2391 108.458C62.9536 106.746 61.3213 103.844 61.3213 99.7728C61.3213 97.518 61.9072 94.3655 63.1001 90.2945L76.3049 47.2246C78.6696 39.2913 82.0179 34.0928 86.3707 31.6293C90.7235 29.1658 97.6712 27.934 107.235 27.934H124.792C131.887 27.934 137.055 28.79 140.341 30.5019C143.627 32.2139 145.259 35.1158 145.259 39.1869C145.259 41.2329 144.61 44.448 143.334 48.8322L135.925 72.9455H100.308L94.9926 90.6285C94.3438 92.9876 95.16 94.1568 97.3991 94.1568C99.0105 94.1568 100.141 93.092 100.789 90.9417L104.661 78.3944H134.314L134.293 78.3735ZM110.437 59.417L114.308 46.7236C115.166 44.3644 114.371 43.1953 111.901 43.1953C110.29 43.1953 109.16 44.3227 108.511 46.5774L104.472 59.4378H110.437V59.417Z" fill="#262627"/>
<path d="M34.3878 46.7027C34.9319 46.1181 35.7271 45.8259 36.8153 45.8259C39.0754 45.8259 39.8288 47.0576 39.0754 49.5211L35.8736 59.918H66.4686L70.4866 46.7862C71.6585 42.6108 72.2654 39.6044 72.2654 37.7881C72.2654 31.0447 67.5359 27.6626 58.077 27.6626C53.1382 27.6626 49.0366 28.3933 45.7511 29.8339C42.4655 31.2744 39.7032 33.7797 37.4431 37.3079H36.7944L39.5358 28.1428H7.78979L-17.5107 110.921H14.4027L33.0903 49.5211C33.4042 48.2267 33.8437 47.3081 34.3878 46.7027Z" fill="#262627"/>
<path d="M350.111 7.59955L355.405 -10H323.366L318.239 6.86884H-95.8191L-99 17.2449H315.037C315.037 17.2449 293.964 86.4322 290.113 97.9356C286.305 109.293 296.58 112.007 296.58 112.007H331.946L338.538 94.9501L323.471 94.8666L347.014 17.7042H601.944L602.3 16.5559L605.041 7.59955H350.111Z" fill="#F58220"/>
</g>
</svg>
