<svg width="240" height="40" viewBox="0 0 240 40" fill="none" xmlns="http://www.w3.org/2000/svg">
<g clip-path="url(#clip0_335_2621)">
<path d="M85.6379 28.9783L84.1077 33.9346C83.3666 36.2553 82.3373 37.7888 81.0198 38.5487C79.7022 39.3017 77.4172 39.6851 74.1783 39.6851H68.421C66.0948 39.6851 64.3999 39.4044 63.3225 38.8431C62.2452 38.2817 61.71 37.3301 61.71 35.9952C61.71 35.2559 61.9021 34.2221 62.2932 32.8872L66.6232 18.7643C67.3986 16.1629 68.4965 14.4583 69.9238 13.6505C71.3511 12.8427 73.6293 12.4388 76.7653 12.4388H82.5225C84.8488 12.4388 86.5437 12.7195 87.621 13.2808C88.6984 13.8422 89.2336 14.7938 89.2336 16.1287C89.2336 16.7996 89.0209 17.8538 88.6023 19.2915L86.1732 27.1984H74.4939L72.751 32.9967C72.5383 33.7703 72.8059 34.1537 73.5401 34.1537C74.0685 34.1537 74.4391 33.8046 74.6518 33.0994L75.9213 28.9851H85.6448L85.6379 28.9783ZM77.8152 22.7623L79.0847 18.6C79.366 17.8265 79.1052 17.4431 78.2955 17.4431C77.7671 17.4431 77.3966 17.8128 77.1839 18.5521L75.8595 22.7691H77.8152V22.7623Z" fill="#898989"/>
<path d="M177.575 28.9783L176.045 33.9346C175.304 36.2553 174.275 37.7888 172.957 38.5487C171.64 39.3017 169.355 39.6851 166.116 39.6851H160.359C158.032 39.6851 156.337 39.4044 155.26 38.8431C154.183 38.2817 153.647 37.3301 153.647 35.9952C153.647 35.2559 153.84 34.2221 154.231 32.8872L158.561 18.7643C159.336 16.1629 160.434 14.4583 161.861 13.6505C163.289 12.8427 165.567 12.4388 168.703 12.4388H174.46C176.786 12.4388 178.481 12.7195 179.559 13.2808C180.636 13.8422 181.171 14.7938 181.171 16.1287C181.171 16.7996 180.958 17.8538 180.54 19.2915L178.111 27.1984H166.431L164.688 32.9967C164.476 33.7703 164.743 34.1537 165.478 34.1537C166.006 34.1537 166.377 33.8046 166.589 33.0994L167.859 28.9851H177.582L177.575 28.9783ZM169.76 22.7623L171.029 18.6C171.31 17.8265 171.05 17.4431 170.24 17.4431C169.712 17.4431 169.341 17.8128 169.128 18.5521L167.804 22.7691H169.76V22.7623Z" fill="#898989"/>
<path d="M102.436 39.5687H90.1807L93.1382 12.4251H102.649L98.7925 31.6618H99.0533L106.396 12.4251H116.064L102.436 39.5687Z" fill="#898989"/>
<path d="M134.215 33.4075C133.439 35.9747 132.348 37.6587 130.941 38.4665C129.535 39.2744 127.263 39.6783 124.127 39.6783H117.629C115.303 39.6783 113.608 39.3976 112.531 38.8362C111.453 38.2749 110.918 37.3233 110.918 35.9884C110.918 35.249 111.11 34.2153 111.501 32.8804L115.831 18.7575C116.607 16.1561 117.705 14.4515 119.132 13.6437C120.559 12.8359 122.837 12.432 125.973 12.432H132.417C134.743 12.432 136.452 12.7127 137.543 13.274C138.634 13.8354 139.183 14.7869 139.183 16.1219C139.183 16.7927 138.97 17.847 138.551 19.2846L134.221 33.4075H134.215ZM128.032 19.49C128.245 18.7164 127.998 18.3331 127.291 18.3331C126.941 18.3331 126.68 18.4152 126.522 18.5727C126.364 18.7301 126.234 19.0039 126.124 19.3873L122.11 32.408C121.897 33.1816 122.144 33.565 122.851 33.565C123.201 33.565 123.462 33.4828 123.62 33.3254C123.777 33.1679 123.908 32.8941 124.018 32.5107L128.032 19.49Z" fill="#898989"/>
<path d="M52.8782 18.5932C53.0566 18.4015 53.3174 18.3057 53.6742 18.3057C54.4153 18.3057 54.6624 18.7096 54.4153 19.5174L53.3654 22.9266H63.3977L64.7152 18.6206C65.0995 17.2514 65.2985 16.2656 65.2985 15.67C65.2985 13.4588 63.7477 12.3498 60.6461 12.3498C59.0266 12.3498 57.6817 12.5894 56.6043 13.0618C55.527 13.5341 54.6212 14.3556 53.8801 15.5126H53.6674L54.5663 12.5073H44.1566L35.8604 39.6509H46.325L52.4528 19.5174C52.5557 19.0929 52.6998 18.7917 52.8782 18.5932Z" fill="#898989"/>
<path d="M156.406 5.77101L158.142 0H147.636L145.955 5.53141H10.1827L9.13965 8.93377H144.905C144.905 8.93377 137.995 31.6207 136.733 35.3928C135.484 39.1169 138.853 40.0068 138.853 40.0068H150.45L152.611 34.4138L147.671 34.3864L155.39 9.08438H238.984L239.1 8.70786L239.999 5.77101H156.406Z" fill="#F58220"/>
<path d="M193.427 28.8208L192.302 32.4559C192.199 32.8393 192.062 33.1131 191.904 33.2706C191.746 33.428 191.492 33.5102 191.135 33.5102C190.429 33.5102 190.181 33.1268 190.394 32.3533L194.409 19.2299C194.621 18.4905 195.006 18.1208 195.568 18.1208C196.309 18.1208 196.57 18.5042 196.357 19.2778L195.198 23.0703H204.907L206.074 19.1682C206.499 17.7306 206.705 16.6764 206.705 16.0055C206.705 14.6706 206.17 13.719 205.093 13.1576C204.015 12.5963 202.32 12.3156 199.994 12.3156H194.237C191.101 12.3156 188.823 12.7195 187.396 13.5273C185.968 14.3351 184.87 16.0397 184.095 18.6411L179.765 32.764C179.381 34.0989 179.182 35.1326 179.182 35.872C179.182 37.2069 179.717 38.1585 180.794 38.7198C181.872 39.2812 183.566 39.5619 185.893 39.5619H191.65C194.786 39.5619 197.057 39.158 198.464 38.3502C199.871 37.5424 200.982 35.8583 201.792 33.2911L203.144 28.814H193.407L193.427 28.8208Z" fill="#898989"/>
</g>
<defs>
<clipPath id="clip0_335_2621">
<rect width="240" height="40" fill="white"/>
</clipPath>
</defs>
</svg>
